<?xml version="1.0" encoding="utf-8"?>
<!-- Generator: Adobe Illustrator 24.1.1, SVG Export Plug-In . SVG Version: 6.00 Build 0)  -->
<svg version="1.1" id="Layer_1" xmlns="http://www.w3.org/2000/svg" xmlns:xlink="http://www.w3.org/1999/xlink" x="0px" y="0px"
	 viewBox="0 0 18 20.4" style="enable-background:new 0 0 18 20.4;" xml:space="preserve">
<style type="text/css">
	.st0{fill:#25F4EE;}
	.st1{fill:#FE2C55;}
</style>
<g>
	<path class="st0" d="M7,8V7.2c-0.3,0-0.6-0.1-0.8-0.1c-2.7,0-5.1,1.7-5.9,4.3s0.1,5.4,2.4,6.9C0.3,15.9,0.5,12,2.9,9.7
		C4,8.6,5.5,8,7,8L7,8z"/>
	<path class="st0" d="M7.2,17c1.5,0,2.7-1.2,2.8-2.7V0.9h2.5c-0.1-0.3-0.1-0.6-0.1-0.9H9v13.4c-0.1,1.5-1.3,2.7-2.8,2.7
		c-0.5,0-0.9-0.1-1.3-0.3C5.4,16.6,6.3,17,7.2,17z M17,5.4V4.7c-0.9,0-1.8-0.3-2.5-0.8C15.1,4.7,16,5.2,17,5.4z"/>
</g>
<path class="st1" d="M14.5,3.9c-0.7-0.8-1.2-1.9-1.2-3.1h-0.9C12.7,2.1,13.4,3.2,14.5,3.9z M6.2,10.5c-1.6,0-2.8,1.3-2.8,2.8
	c0,1,0.6,2,1.5,2.5c-0.9-1.3-0.6-3,0.6-3.9c0.5-0.3,1.1-0.5,1.7-0.5c0.3,0,0.6,0,0.8,0.1V8.1C7.7,8,7.4,8,7.2,8H7v2.6
	C6.7,10.5,6.5,10.5,6.2,10.5z"/>
<path class="st1" d="M17,5.4V8c-1.7,0-3.3-0.5-4.7-1.5v6.8c0,3.4-2.8,6.2-6.2,6.2c-1.3,0-2.5-0.4-3.5-1.1c2.3,2.5,6.2,2.6,8.7,0.3
	c1.3-1.2,2-2.8,2-4.5V7.4c1.4,1,3,1.5,4.7,1.5V5.5C17.7,5.5,17.3,5.5,17,5.4L17,5.4z"/>
<path d="M12.4,13.3V6.5c1.4,1,3,1.5,4.7,1.5V5.4c-1-0.2-1.9-0.7-2.5-1.5c-1.1-0.7-1.8-1.8-2-3.1H10v13.5C9.9,15.9,8.6,17.1,7,17
	c-0.9,0-1.7-0.5-2.2-1.2C3.5,15.1,3,13.4,3.7,12c0.5-0.9,1.4-1.5,2.5-1.5c0.3,0,0.6,0,0.8,0.1V8.1c-3.4,0.1-6.1,2.9-6.1,6.3
	c0,1.5,0.6,3,1.7,4.1c1,0.7,2.3,1.1,3.5,1C9.6,19.5,12.4,16.7,12.4,13.3L12.4,13.3z"/>
</svg>
